<svg width="184" height="66" viewBox="0 0 184 66" fill="none" xmlns="http://www.w3.org/2000/svg">
<path d="M23.9432 15.6005L21.3795 11.4592H31.6671L29.8594 19.972H36.2686L38.1092 11.4592H44.9129L40.0484 34.4667H33.179L35.3155 24.442H28.9062L26.8027 34.4667H19.9004L23.9432 15.6005ZM54.698 11.4592L51.214 27.9588C51.1702 28.2437 51.203 28.4738 51.3126 28.6491C51.4441 28.8244 51.6522 28.912 51.9371 28.912H54.6323C54.9171 28.912 55.1581 28.8244 55.3553 28.6491C55.5745 28.4738 55.7169 28.2437 55.7826 27.9588L59.2666 11.4592H66.1031L61.8303 31.3442C61.6112 32.2864 61.151 33.0424 60.4499 33.6121C59.7706 34.1818 58.9599 34.4667 58.0176 34.4667H45.988C45.0458 34.4667 44.3446 34.1818 43.8845 33.6121C43.4462 33.0424 43.3367 32.2864 43.5558 31.3442L46.9083 15.6005L44.3446 11.4592H54.698ZM71.2963 15.6005L68.7654 11.4592H82.307L82.2084 34.4667H75.339V30.7526H69.2913L67.6479 34.4667H62.8821L71.2963 15.6005ZM71.2634 26.2826H75.3719V16.981L71.2634 26.2826Z" fill="#2B2B2B"/>
<path d="M96.8051 11.4592L99.1715 25.7567L106.534 11.4592H115.31L110.445 34.4667H103.543L106.468 20.695L99.4673 34.4667H93.7155L91.5133 20.5307L88.5224 34.4667H83.7894L87.7664 15.6005L85.2027 11.4592H96.8051ZM125.036 11.4592L120.172 34.4667H113.27L117.312 15.6005L114.749 11.4592H125.036ZM134.744 11.4592L139.28 25.5595L142.304 11.4592H147.004L142.14 34.4667H135.27L130.8 20.4978L127.842 34.4667H123.109L127.152 15.6005L124.588 11.4592H134.744ZM149.516 17.0138L146.131 11.4592H169.106L167.922 17.0138H161.447L157.733 34.4667H150.864L154.611 17.0138H149.516Z" fill="#EBA545"/>
<path d="M20.2316 43.4379L19.3158 41.9584H25.8443C26.1809 41.9584 26.4236 42.0602 26.5723 42.2637C26.721 42.4673 26.7602 42.7373 26.6897 43.0739L26.2905 44.9996C26.2592 45.1405 26.1965 45.2736 26.1026 45.3988C26.0165 45.5241 25.9147 45.6219 25.7973 45.6924L25.5273 45.8568L25.6916 46.0564C25.7856 46.166 25.8521 46.2951 25.8913 46.4439C25.9304 46.5926 25.9343 46.7335 25.903 46.8666L25.4216 49.0623C25.3433 49.3989 25.1789 49.669 24.9284 49.8725C24.6857 50.076 24.3961 50.1778 24.0595 50.1778H18.7874L20.2316 43.4379ZM22.3334 45.0701H23.4959C23.7151 45.0701 23.8521 44.9605 23.9069 44.7413L24.0125 44.2716C24.036 44.1698 24.0243 44.0916 23.9773 44.0368C23.9303 43.9741 23.856 43.9428 23.7542 43.9428H22.58L22.3334 45.0701ZM21.6642 48.1934H22.8266C22.9284 48.1934 23.0145 48.1621 23.0849 48.0995C23.1632 48.0369 23.2141 47.9547 23.2376 47.8529L23.4137 47.0427C23.4528 46.847 23.3824 46.7374 23.2023 46.7139H21.9812L21.6642 48.1934ZM34.8657 50.1778L35.3471 48.029L34.6426 43.4497L32.576 41.9584H36.8735L37.5193 45.4106L40.0438 41.9584H41.7464L37.8951 47.5476L37.3197 50.1778H34.8657ZM57.8492 41.9584H64.3894C64.726 41.9584 64.9726 42.0602 65.1292 42.2637C65.2936 42.4673 65.3366 42.7373 65.2583 43.0739L64.4482 46.8079C64.3777 47.1523 64.2172 47.4263 63.9667 47.6298C63.7241 47.8333 63.4305 47.9351 63.0861 47.9351H60.268L59.7984 50.1778H57.3325L58.7651 43.4379L57.8492 41.9584ZM60.679 45.9507H61.8414C62.0606 45.9507 62.1976 45.8411 62.2524 45.6219L62.546 44.2716C62.5694 44.1698 62.5577 44.0916 62.5107 44.0368C62.4638 43.9741 62.3894 43.9428 62.2876 43.9428H61.1134L60.679 45.9507ZM75.6311 41.9584L74.3865 47.8529C74.3708 47.9547 74.3826 48.0369 74.4217 48.0995C74.4687 48.1621 74.5431 48.1934 74.6448 48.1934H75.6077C75.7094 48.1934 75.7955 48.1621 75.866 48.0995C75.9443 48.0369 75.9951 47.9547 76.0186 47.8529L77.2633 41.9584H79.7056L78.1791 49.0623C78.1009 49.3989 77.9365 49.669 77.686 49.8725C77.4433 50.076 77.1537 50.1778 76.8171 50.1778H72.5195C72.1829 50.1778 71.9324 50.076 71.7681 49.8725C71.6115 49.669 71.5724 49.3989 71.6506 49.0623L72.8483 43.4379L71.9324 41.9584H75.6311ZM86.1871 41.9584H92.7274C93.064 41.9584 93.3106 42.0602 93.4671 42.2637C93.6315 42.4673 93.6746 42.7373 93.5963 43.0739L92.7861 46.8079C92.7156 47.1523 92.5552 47.4263 92.3047 47.6298C92.062 47.8333 91.7685 47.9351 91.424 47.9351H88.606L88.1363 50.1778H85.6705L87.103 43.4379L86.1871 41.9584ZM89.0169 45.9507H90.1794C90.3986 45.9507 90.5356 45.8411 90.5904 45.6219L90.8839 44.2716C90.9074 44.1698 90.8956 44.0916 90.8487 44.0368C90.8017 43.9741 90.7273 43.9428 90.6256 43.9428H89.4514L89.0169 45.9507ZM104.404 41.9584L105.249 47.0662L107.879 41.9584H111.014L109.276 50.1778H106.811L107.856 45.2579L105.355 50.1778H103.3L102.513 45.1992L101.445 50.1778H99.7537L101.175 43.4379L100.259 41.9584H104.404ZM117.542 41.9584H124.399C124.736 41.9584 124.982 42.0602 125.139 42.2637C125.303 42.4673 125.35 42.7373 125.28 43.0739L123.988 49.0623C123.91 49.3989 123.746 49.669 123.495 49.8725C123.252 50.076 122.963 50.1778 122.626 50.1778H118.094C117.757 50.1778 117.507 50.076 117.342 49.8725C117.186 49.669 117.147 49.3989 117.225 49.0623L118.458 43.4379L117.542 41.9584ZM121.405 48.1934C121.507 48.1934 121.593 48.1621 121.663 48.0995C121.742 48.0369 121.793 47.9547 121.816 47.8529L122.567 44.2716C122.607 44.0524 122.521 43.9428 122.309 43.9428H121.111C120.892 43.9428 120.755 44.0524 120.701 44.2716L119.949 47.8529C119.933 47.9547 119.945 48.0369 119.984 48.0995C120.031 48.1621 120.106 48.1934 120.207 48.1934H121.405ZM132.918 43.4379L132.002 41.9584H138.989L138.566 43.9428H135.607C135.396 43.9428 135.263 44.0524 135.208 44.2716L135.067 44.9057C135.044 45.0074 135.055 45.0896 135.102 45.1523C135.149 45.2149 135.224 45.2462 135.325 45.2462H137.239C137.576 45.2462 137.823 45.3479 137.979 45.5515C138.144 45.755 138.187 46.0251 138.108 46.3617L137.533 49.0623C137.462 49.3989 137.302 49.669 137.052 49.8725C136.809 50.076 136.515 50.1778 136.171 50.1778H131.685L132.108 48.1934H134.938C135.048 48.1934 135.138 48.1621 135.208 48.0995C135.278 48.0369 135.325 47.9547 135.349 47.8529L135.502 47.1719C135.525 47.0701 135.513 46.9918 135.466 46.937C135.419 46.8744 135.345 46.8431 135.243 46.8431H133.306C132.969 46.8431 132.719 46.7413 132.554 46.5378C132.398 46.3343 132.359 46.0603 132.437 45.7159L132.918 43.4379Z" fill="#9F9F9F"/>
</svg>
